<?xml version="1.0" encoding="UTF-8"?>
<svg version="1.1" xmlns="http://www.w3.org/2000/svg" width="48" height="48">
<path d="M0 0 C1.90419006 -0.36749268 1.90419006 -0.36749268 4.25024414 -0.35644531 C5.12777847 -0.35944641 6.00531281 -0.36244751 6.90943909 -0.36553955 C8.33291908 -0.34701935 8.33291908 -0.34701935 9.78515625 -0.328125 C10.75658066 -0.32625183 11.72800507 -0.32437866 12.72886658 -0.32244873 C14.78420438 -0.31571956 16.83952919 -0.30178802 18.89477539 -0.28125 C22.05301717 -0.25009355 25.21076042 -0.24028081 28.36914062 -0.234375 C30.3619853 -0.22520555 32.35482486 -0.21482996 34.34765625 -0.203125 C35.29866714 -0.19887512 36.24967804 -0.19462524 37.22950745 -0.19024658 C38.10388962 -0.18063904 38.97827179 -0.17103149 39.87915039 -0.16113281 C40.65255264 -0.15430481 41.4259549 -0.14747681 42.22279358 -0.14044189 C44 0 44 0 45 1 C45.09795311 2.37609882 45.12798088 3.75713882 45.12939453 5.13671875 C45.13254669 6.01432861 45.13569885 6.89193848 45.13894653 7.79614258 C45.1369223 8.75029053 45.13489807 9.70443848 45.1328125 10.6875 C45.13376923 11.66033936 45.13472595 12.63317871 45.13571167 13.63549805 C45.13639358 15.696778 45.13453853 17.75806008 45.13037109 19.81933594 C45.125023 22.98637688 45.13031572 26.153276 45.13671875 29.3203125 C45.13605797 31.31770865 45.13477681 33.31510471 45.1328125 35.3125 C45.13483673 36.26664795 45.13686096 37.2207959 45.13894653 38.20385742 C45.13421829 39.52027222 45.13421829 39.52027222 45.12939453 40.86328125 C45.12859894 41.63969971 45.12780334 42.41611816 45.12698364 43.21606445 C45 45 45 45 44 46 C42.62960602 46.10829396 41.25376305 46.14899701 39.87915039 46.16113281 C39.00476822 46.17074036 38.13038605 46.1803479 37.22950745 46.19024658 C36.27849655 46.19449646 35.32748566 46.19874634 34.34765625 46.203125 C33.37718857 46.20882507 32.40672089 46.21452515 31.40684509 46.22039795 C29.34977311 46.22986293 27.29268586 46.23638785 25.2355957 46.24023438 C22.0793227 46.24994823 18.92369833 46.28096097 15.76757812 46.3125 C13.77344139 46.3190288 11.77929997 46.32427975 9.78515625 46.328125 C8.83616959 46.3404718 7.88718292 46.3528186 6.90943909 46.36553955 C5.59313759 46.3610379 5.59313759 46.3610379 4.25024414 46.35644531 C3.4760463 46.36009094 2.70184845 46.36373657 1.90419006 46.36749268 C1.27580734 46.24622009 0.64742462 46.12494751 0 46 C-2.63290343 42.05064486 -2.28744926 38.64494248 -2.265625 34.0625 C-2.26753845 33.18601807 -2.2694519 32.30953613 -2.27142334 31.40649414 C-2.27278399 29.55387078 -2.26909594 27.70123784 -2.26074219 25.84863281 C-2.25004092 23.01085011 -2.26064148 20.17370048 -2.2734375 17.3359375 C-2.27211588 15.53645693 -2.26955345 13.73697676 -2.265625 11.9375 C-2.26967346 11.08744385 -2.27372192 10.2373877 -2.27789307 9.36157227 C-2.22993499 3.34490249 -2.22993499 3.34490249 0 0 Z " fill="#033568" transform="translate(2,1)"/>
<path d="M0 0 C1.92665546 4.46172843 0.83356318 9.3017348 0 14 C-1.0625 16.5 -1.0625 16.5 -2 18 C-1.34 18 -0.68 18 0 18 C0 18.66 0 19.32 0 20 C-2.68419062 20.70350553 -5.37101833 21.38795993 -8.0625 22.0625 C-8.81466797 22.26166016 -9.56683594 22.46082031 -10.34179688 22.66601562 C-17.32266999 24.38856873 -22.77572478 23.76647304 -29.4375 20.9375 C-30.30246094 20.57527344 -31.16742188 20.21304688 -32.05859375 19.83984375 C-32.69925781 19.56269531 -33.33992188 19.28554688 -34 19 C-34.12527964 12.48545861 -34.12527964 12.48545861 -33.5 10.0625 C-32.69145507 6.72725218 -32.942953 3.42282 -33 0 C-22.08380674 -4.13045151 -10.43694085 -6.29343624 0 0 Z " fill="#CBD5E0" transform="translate(40,14)"/>
<path d="M0 0 C1.31097656 0.556875 1.31097656 0.556875 2.6484375 1.125 C3.30070312 1.41375 3.95296875 1.7025 4.625 2 C4.625 2.33 4.625 2.66 4.625 3 C-5.85486174 5.64754402 -14.1966473 7.51910568 -24.375 3 C-25.035 2.34 -25.695 1.68 -26.375 1 C-24.0013603 0.49265716 -21.62642575 -0.00602386 -19.25 -0.5 C-18.58484375 -0.64308594 -17.9196875 -0.78617188 -17.234375 -0.93359375 C-10.81387634 -2.25546112 -6.06641875 -2.62331621 0 0 Z " fill="#EFF2F5" transform="translate(35.375,12)"/>
<path d="M0 0 C-0.33 1.65 -0.66 3.3 -1 5 C-8.92292727 8.62366441 -17.04387792 8.86189741 -25.38671875 6.25390625 C-27.3125 5.4375 -27.3125 5.4375 -30 4 C-30 3.01 -30 2.02 -30 1 C-28.85724609 1.23396484 -28.85724609 1.23396484 -27.69140625 1.47265625 C-17.04517768 3.47962318 -10.04100256 0 0 0 Z " fill="#1E4A77" transform="translate(39,21)"/>
<path d="M0 0 C0.66 0.99 1.32 1.98 2 3 C4.05003955 4.19232613 4.05003955 4.19232613 6 5 C4.1875 6.0625 4.1875 6.0625 2 7 C1.01 6.67 0.02 6.34 -1 6 C-0.67 7.32 -0.34 8.64 0 10 C4.29 10.99 8.58 11.98 13 13 C12.67 11.68 12.34 10.36 12 9 C12.99 9.33 13.98 9.66 15 10 C14.67 10.99 14.34 11.98 14 13 C14.66 13 15.32 13 16 13 C15.67 13.99 15.34 14.98 15 16 C8.81839396 15.46246904 3.673142 13.45417612 -2 11 C-2.28571429 3.57142857 -2.28571429 3.57142857 0 0 Z " fill="#B8C6D4" transform="translate(8,22)"/>
<path d="M0 0 C4.86896303 0.59619955 9.32790951 1.56976822 14 3 C14 4.32 14 5.64 14 7 C4.01721794 6.36927957 4.01721794 6.36927957 0 3 C0 2.01 0 1.02 0 0 Z " fill="#164473" transform="translate(8,15)"/>
<path d="M0 0 C-0.33 1.65 -0.66 3.3 -1 5 C-2.43554025 5.50559908 -3.8735202 6.0042749 -5.3125 6.5 C-6.51326172 6.91765625 -6.51326172 6.91765625 -7.73828125 7.34375 C-10 8 -10 8 -13 8 C-12.67 6.35 -12.34 4.7 -12 3 C-10.56445975 2.49440092 -9.1264798 1.9957251 -7.6875 1.5 C-6.88699219 1.2215625 -6.08648437 0.943125 -5.26171875 0.65625 C-3 0 -3 0 0 0 Z " fill="#144271" transform="translate(39,21)"/>
<path d="M0 0 C-0.33 1.32 -0.66 2.64 -1 4 C-5.84241633 5.33583899 -9.93437617 6.25328119 -15 6 C-14.67 4.68 -14.34 3.36 -14 2 C-4.58997722 -0.29612756 -4.58997722 -0.29612756 0 0 Z " fill="#1B4775" transform="translate(37,29)"/>
<path d="M0 0 C4.83628305 0.99043705 9.47618873 1.95698846 14 4 C14 4.99 14 5.98 14 7 C9.02906176 6.58846263 4.55491614 6.20399168 0 4 C0 2.68 0 1.36 0 0 Z " fill="#124170" transform="translate(7,28)"/>
<path d="M0 0 C0 0.99 0 1.98 0 3 C-1.55966218 3.508783 -3.12289241 4.00663469 -4.6875 4.5 C-5.99267578 4.91765625 -5.99267578 4.91765625 -7.32421875 5.34375 C-9.99391677 5.99850805 -12.26396684 6.11831495 -15 6 C-15 4.68 -15 3.36 -15 2 C-9.92523206 0.73694665 -5.27203646 -0.27036084 0 0 Z " fill="#194674" transform="translate(38,16)"/>
<path d="M0 0 C1.485 0.99 1.485 0.99 3 2 C2.01 2 1.02 2 0 2 C0.63798154 5.04844414 0.63798154 5.04844414 2.671875 5.9140625 C3.35765625 6.14867187 4.0434375 6.38328125 4.75 6.625 C5.46671875 6.87121094 6.1834375 7.11742187 6.921875 7.37109375 C9.26153715 8.0791494 11.58448288 8.62257545 14 9 C14.33 7.68 14.66 6.36 15 5 C15 6.32 15 7.64 15 9 C15.66 9.33 16.32 9.66 17 10 C10.41276707 11.04559253 5.40766041 10.83292414 -1 9 C-1.09765625 2.84765625 -1.09765625 2.84765625 -1 1 C-0.67 0.67 -0.34 0.34 0 0 Z " fill="#C5D1DC" transform="translate(8,13)"/>
<path d="M0 0 C1.24136719 0.0721875 2.48273437 0.144375 3.76171875 0.21875 C5.4036416 0.31257416 7.04556892 0.40632005 8.6875 0.5 C9.50412109 0.54769531 10.32074219 0.59539063 11.16210938 0.64453125 C15.11353058 0.86849844 19.04018757 1.06451833 23 1 C19.57554386 4.42445614 15.16345735 4.1714024 10.5 4.25 C6.20741726 4.2210352 3.37085432 3.9059089 0 1 C0 0.67 0 0.34 0 0 Z " fill="#ECF0F3" transform="translate(11,27)"/>
<path d="M0 0 C2.64 0.33 5.28 0.66 8 1 C7.67 2.32 7.34 3.64 7 5 C7.66 5 8.32 5 9 5 C9 5.66 9 6.32 9 7 C1.08 8.485 1.08 8.485 -7 10 C-7 9.34 -7 8.68 -7 8 C-6.14535156 7.81824219 -5.29070313 7.63648438 -4.41015625 7.44921875 C-2.75306641 7.07216797 -2.75306641 7.07216797 -1.0625 6.6875 C0.59072266 6.32205078 0.59072266 6.32205078 2.27734375 5.94921875 C3.62505859 5.47935547 3.62505859 5.47935547 5 5 C5.33 4.01 5.66 3.02 6 2 C3.03 1.505 3.03 1.505 0 1 C0 0.67 0 0.34 0 0 Z " fill="#C4D0DC" transform="translate(31,27)"/>
<path d="M0 0 C0.99 0.33 1.98 0.66 3 1 C2.67 1.99 2.34 2.98 2 4 C2.66 4 3.32 4 4 4 C3.67 4.99 3.34 5.98 3 7 C-1.05606165 6.53199289 -4.46588679 6.12046792 -8 4 C-4.52176885 2.84058962 -2.54104422 3.29179116 1 4 C0.67 2.68 0.34 1.36 0 0 Z " fill="#AFBFCF" transform="translate(20,31)"/>
<path d="M0 0 C3.63 0.33 7.26 0.66 11 1 C10.01 1.33 9.02 1.66 8 2 C8 2.66 8 3.32 8 4 C5.125 3.6875 5.125 3.6875 2 3 C1.34 2.01 0.68 1.02 0 0 Z " fill="#D5DEE6" transform="translate(11,27)"/>
<path d="M0 0 C0 0.66 0 1.32 0 2 C-2.70879335 3.35439668 -5.00933268 3.06501451 -8 3 C-8.33 2.34 -8.66 1.68 -9 1 C-5.846632 0.29925156 -3.27275026 0 0 0 Z " fill="#E7EBF0" transform="translate(29,22)"/>
</svg>
